<svg version="1.1" id="Layer_1" xmlns="http://www.w3.org/2000/svg" xmlns:xlink="http://www.w3.org/1999/xlink" x="0px" y="0px"
	 width="150px" height="150px" viewBox="0 0 150 150" enable-background="new 0 0 150 150" xml:space="preserve">
<path fill="#FFFFFF" d="M5.999,45.969h86.75l16.398-0.01c6.306,0,10.219,6.747,10.219,13.029c0,3.724-1.346,7.055-3.775,9.466
	c-2.924,2.866-7.425,4.383-13.006,4.383l-39.623-0.028l60.513,55.533H147.4c0,0-38.324-35.141-42.3-38.775
	c3.81,0,7.344-0.037,7.344-0.037c6.496,0,12.413-2.568,17.113-7.391c5.377-5.559,8.656-13.76,8.656-21.587
	c0-0.232-0.005-0.497-0.005-0.758c-0.46-16.113-8.315-33.336-29.062-33.336l-16.398,0.005H5.933L5.999,45.969z"/>
<polygon fill="#AAA25C" points="5.999,128.342 95.256,128.342 5.999,45.969 "/>
</svg>
